<svg width="52" height="52" viewBox="0 0 52 52" fill="none" xmlns="http://www.w3.org/2000/svg">
<g clip-path="url(#clip0_3919_89916)">
<path d="M49.9688 23.3834V9.4654L37.8355 5.05296V23.3834H36.1021V2.58343H15.3021V23.3834H13.5688V12.038H11.8355V5.4198H8.36881V-0.25293H6.63548V5.4198H3.16881V12.038H1.43548V23.3834H-0.297852V49.8562H15.3021V51.7471H36.1021V49.8562H51.7021V23.3834H49.9688ZM4.90215 7.31071H10.1021V12.038H4.90215V7.31071ZM3.16881 13.9289H11.8355V23.3834H3.16881V13.9289ZM15.3021 47.9653H1.43548V25.2743H15.3021V47.9653ZM27.4355 49.8562H23.9688V40.4016H27.4355V49.8562ZM34.3688 49.8562H29.1688V38.5107H22.2355V49.8562H17.0355V4.47434H34.3688V49.8562ZM39.5688 7.67754L48.2355 10.8287V23.3834H46.5021V12.038H44.7688V23.3834H43.0355V12.038H41.3021V23.3834H39.5688V7.67754ZM44.7688 47.9653H41.3021V44.1834H44.7688V47.9653ZM49.9688 47.9653H46.5021V42.2925H39.5688V47.9653H36.1021V25.2743H49.9688V47.9653Z" fill="#2196F3"/>
<path d="M13.5689 27.1621H3.16895V29.053H13.5689V27.1621Z" fill="#2196F3"/>
<path d="M13.5689 30.9448H3.16895V32.8357H13.5689V30.9448Z" fill="#2196F3"/>
<path d="M13.5689 34.7275H3.16895V36.6184H13.5689V34.7275Z" fill="#2196F3"/>
<path d="M13.5689 38.5078H3.16895V40.3987H13.5689V38.5078Z" fill="#2196F3"/>
<path d="M19.6357 8.25586V13.9286H24.8357V8.25586H19.6357ZM23.1024 12.0377H21.3691V10.1468H23.1024V12.0377Z" fill="#2196F3"/>
<path d="M26.5684 8.25586V13.9286H31.7684V8.25586H26.5684ZM30.035 12.0377H28.3017V10.1468H30.035V12.0377Z" fill="#2196F3"/>
<path d="M19.6357 15.8188V21.4916H24.8357V15.8188H19.6357ZM23.1024 19.6007H21.3691V17.7098H23.1024V19.6007Z" fill="#2196F3"/>
<path d="M26.5684 15.8188V21.4916H31.7684V15.8188H26.5684ZM30.035 19.6007H28.3017V17.7098H30.035V19.6007Z" fill="#2196F3"/>
<path d="M19.6357 23.3818V29.0546H24.8357V23.3818H19.6357ZM23.1024 27.1637H21.3691V25.2727H23.1024V27.1637Z" fill="#2196F3"/>
<path d="M26.5684 23.3818V29.0546H31.7684V23.3818H26.5684ZM30.035 27.1637H28.3017V25.2727H30.035V27.1637Z" fill="#2196F3"/>
<path d="M19.6357 30.9448V36.6175H24.8357V30.9448H19.6357ZM23.1024 34.7266H21.3691V32.8357H23.1024V34.7266Z" fill="#2196F3"/>
<path d="M26.5684 30.9448V36.6175H31.7684V30.9448H26.5684ZM30.035 34.7266H28.3017V32.8357H30.035V34.7266Z" fill="#2196F3"/>
<path d="M39.5693 27.1621H37.8359V29.053H39.5693V27.1621Z" fill="#2196F3"/>
<path d="M44.7684 27.1621H41.3018V29.053H44.7684V27.1621Z" fill="#2196F3"/>
<path d="M48.2353 27.1621H46.502V29.053H48.2353V27.1621Z" fill="#2196F3"/>
<path d="M39.5693 30.9448H37.8359V32.8357H39.5693V30.9448Z" fill="#2196F3"/>
<path d="M44.7684 30.9448H41.3018V32.8357H44.7684V30.9448Z" fill="#2196F3"/>
<path d="M48.2353 30.9448H46.502V32.8357H48.2353V30.9448Z" fill="#2196F3"/>
<path d="M39.5693 34.7275H37.8359V36.6184H39.5693V34.7275Z" fill="#2196F3"/>
<path d="M44.7684 34.7275H41.3018V36.6184H44.7684V34.7275Z" fill="#2196F3"/>
<path d="M48.2353 34.7275H46.502V36.6184H48.2353V34.7275Z" fill="#2196F3"/>
<path d="M39.5693 38.5078H37.8359V40.3987H39.5693V38.5078Z" fill="#2196F3"/>
<path d="M44.7684 38.5078H41.3018V40.3987H44.7684V38.5078Z" fill="#2196F3"/>
<path d="M48.2353 38.5078H46.502V40.3987H48.2353V38.5078Z" fill="#2196F3"/>
</g>
<defs>
<clipPath id="clip0_3919_89916">
<rect width="52" height="52" fill="white"/>
</clipPath>
</defs>
</svg>
