<svg width="52" height="52" viewBox="0 0 52 52" fill="none" xmlns="http://www.w3.org/2000/svg">
<g clip-path="url(#clip0_3919_89909)">
<path d="M29.2734 21.2061C28.7126 21.2061 28.2578 21.6609 28.2578 22.2217V22.2275C28.2578 22.7883 28.7126 23.2402 29.2734 23.2402C29.8343 23.2402 30.2891 22.7826 30.2891 22.2218C30.2891 21.661 29.8344 21.2061 29.2734 21.2061Z" fill="#2196F3"/>
<path d="M22.7207 21.2061C22.1599 21.2061 21.7051 21.6609 21.7051 22.2217V22.2275C21.7051 22.7883 22.1599 23.2402 22.7207 23.2402C23.2815 23.2402 23.7363 22.7826 23.7363 22.2218C23.7363 21.661 23.2815 21.2061 22.7207 21.2061Z" fill="#2196F3"/>
<path d="M29.2734 27.7441C28.7126 27.7441 28.2578 28.2018 28.2578 28.7626C28.2578 29.3234 28.7126 29.7782 29.2734 29.7782C29.8343 29.7782 30.2891 29.3234 30.2891 28.7626V28.7568C30.2891 28.1961 29.8344 27.7441 29.2734 27.7441Z" fill="#2196F3"/>
<path d="M22.7207 27.7441C22.1599 27.7441 21.7051 28.2018 21.7051 28.7626C21.7051 29.3234 22.1599 29.7782 22.7207 29.7782C23.2815 29.7782 23.7363 29.3234 23.7363 28.7626V28.7568C23.7363 28.1961 23.2815 27.7441 22.7207 27.7441Z" fill="#2196F3"/>
<path d="M50.9844 19.1019H46.8576C46.4647 17.7354 45.2026 16.7322 43.7095 16.7322C42.2149 16.7322 40.9516 17.7354 40.5585 19.1019H34.4524C34.1313 18.1376 33.3666 17.3743 32.4006 17.0542V14.8552C32.4006 13.7202 31.6597 12.7555 30.6357 12.4162V10.7963C30.6357 9.08014 29.2361 7.68386 27.5156 7.68386H27.0141V4.53308H34.7646C35.3255 4.53308 35.7803 4.07829 35.7803 3.51746C35.7803 2.95663 35.3255 2.50183 34.7646 2.50183H27.0141V1.57568C27.0141 1.01486 26.5593 0.560059 25.9985 0.560059C25.4376 0.560059 24.9829 1.01486 24.9829 1.57568V2.50183H17.2353C16.6744 2.50183 16.2196 2.95663 16.2196 3.51746C16.2196 4.07829 16.6744 4.53308 17.2353 4.53308H24.9829V7.68375H24.4813C22.7625 7.68375 21.3642 9.08003 21.3642 10.7962V12.415C20.3387 12.7534 19.5965 13.719 19.5965 14.855V17.054C18.6305 17.3741 17.8658 18.1374 17.5446 19.1017H11.4387C11.0458 17.7352 9.78372 16.732 8.29045 16.732C6.79717 16.732 5.53505 17.7352 5.14231 19.1017H1.01562C0.454797 19.1017 0 19.5565 0 20.1173V30.8691C0 31.4299 0.454797 31.8847 1.01562 31.8847H5.14241C5.53526 33.2512 6.79737 34.2544 8.29055 34.2544C9.78382 34.2544 11.0459 33.2512 11.4388 31.8847H17.545C17.8663 32.8477 18.6308 33.6098 19.5965 33.9296V40.0167C18.227 40.4087 17.2214 41.6704 17.2214 43.1633C17.2214 44.6548 18.227 45.9154 19.5965 46.3072V50.4221C19.5965 50.9829 20.0513 51.4377 20.6121 51.4377H31.3849C31.9458 51.4377 32.4006 50.9829 32.4006 50.4221V46.308C33.7716 45.9172 34.7785 44.6559 34.7785 43.1633C34.7785 41.6694 33.7715 40.407 32.4006 40.0159V33.9296C33.3662 33.6099 34.1308 32.8477 34.452 31.8847H40.5584C40.9515 33.2512 42.2148 34.2544 43.7094 34.2544C45.2025 34.2544 46.4646 33.2512 46.8575 31.8847H50.9844C51.5452 31.8847 52 31.4299 52 30.8691V30.0447C52 29.4838 51.5452 29.029 50.9844 29.029C50.4888 29.029 50.0762 29.3839 49.9867 29.8534H46.9849V21.133H49.9867C50.0762 21.6025 50.4888 21.9573 50.9844 21.9573C51.5452 21.9573 52 21.5026 52 20.9417V20.1173C52 19.5566 51.5452 19.1019 50.9844 19.1019ZM34.6174 21.1332H40.431V29.8536H34.6174V21.1332ZM21.6277 16.8901V14.8552C21.6277 14.5634 21.8759 14.3168 22.1697 14.3168H29.8274C30.1212 14.3168 30.3693 14.5634 30.3693 14.8552V16.8901H21.6277ZM24.4814 9.715H27.5157C28.1161 9.715 28.6046 10.2001 28.6046 10.7962V12.2854H23.3955V10.7962C23.3954 10.2001 23.8826 9.715 24.4814 9.715ZM11.5661 21.1332H17.3798V29.8536H11.5661V21.1332ZM2.03125 21.1332H5.01505V29.8536H2.03125V21.1332ZM9.53489 30.9841C9.53489 31.6675 8.9767 32.2234 8.29055 32.2234C7.60449 32.2234 7.0463 31.6674 7.0463 30.9841V20.0026C7.0463 19.3193 7.60449 18.7634 8.29055 18.7634C8.9767 18.7634 9.53489 19.3194 9.53489 20.0026V30.9841ZM30.3693 34.0938V39.89H21.6277V34.0938H30.3693ZM21.6277 49.4066V46.434H30.3693V49.4066H21.6277ZM31.5031 44.4028H20.4969C19.8109 44.4028 19.2527 43.8468 19.2527 43.1635C19.2527 42.4786 19.8109 41.9214 20.4969 41.9214H31.503C32.189 41.9214 32.7472 42.4786 32.7472 43.1635C32.7473 43.8468 32.189 44.4028 31.5031 44.4028ZM31.3849 32.0625H20.6121C19.9498 32.0625 19.411 31.5272 19.411 30.8693V20.1175C19.411 19.458 19.9499 18.9213 20.6121 18.9213H31.3849C32.0472 18.9213 32.586 19.458 32.586 20.1175V30.8693C32.5861 31.5273 32.0472 32.0625 31.3849 32.0625ZM44.9537 30.9841C44.9537 31.6675 44.3955 32.2234 43.7095 32.2234C43.0218 32.2234 42.4623 31.6674 42.4623 30.9841V20.0026C42.4623 19.3193 43.0218 18.7634 43.7095 18.7634C44.3955 18.7634 44.9537 19.3194 44.9537 20.0026V30.9841Z" fill="#2196F3"/>
<path d="M50.9844 24.4736C50.4235 24.4736 49.9688 24.9299 49.9688 25.4908C49.9688 26.0517 50.4235 26.5064 50.9844 26.5064C51.5452 26.5064 52 26.0516 52 25.4908V25.4879C52 24.927 51.5452 24.4736 50.9844 24.4736Z" fill="#2196F3"/>
</g>
<defs>
<clipPath id="clip0_3919_89909">
<rect width="52" height="52" fill="white"/>
</clipPath>
</defs>
</svg>
