<svg width="52" height="52" viewBox="0 0 52 52" fill="none" xmlns="http://www.w3.org/2000/svg">
<path d="M41.6001 28.6C41.6001 27.1267 40.0401 26 38.1334 26C36.2267 26 34.6667 27.1267 34.6667 28.6V31.2L30.4201 29.38C31.4601 28.4267 32.1534 27.2133 32.5867 25.9133L34.9267 24.7C35.7934 24.2667 36.4001 23.4 36.4001 22.36V20.8C36.4001 19.3267 35.2734 18.2 33.8001 18.2H33.4534L32.9334 18.72V16.4667H34.6667V13.8667C34.6667 8.49333 31.1134 3.72667 26.0001 2.25333C25.8267 0.953333 24.7001 0 23.4001 0H21.6667C20.3667 0 19.2401 0.953333 19.0667 2.25333C13.9534 3.72667 10.4001 8.49333 10.4001 13.8667V16.4667H12.1334V18.72L11.6134 18.2H11.2667C9.7934 18.2 8.66673 19.3267 8.66673 20.8V22.36C8.66673 23.3133 9.18673 24.2667 10.1401 24.7L12.4801 25.9133C12.9134 27.2133 13.6067 28.4267 14.6467 29.38L7.4534 32.5C3.98673 34.06 1.7334 37.44 1.7334 41.2533V52H45.0667V26.78L41.6001 31.6333V28.6ZM36.4001 38.8267V30.8533C37.5267 31.2867 38.7401 31.2867 39.8667 30.8533V33.9733L36.4001 38.8267ZM38.1334 27.7333C39.1734 27.7333 39.8667 28.2533 39.8667 28.6C39.8667 28.9467 39.1734 29.4667 38.1334 29.4667C37.0934 29.4667 36.4001 28.9467 36.4001 28.6C36.4001 28.2533 37.0934 27.7333 38.1334 27.7333ZM34.6667 35.2733L29.0334 39.4333C28.6001 39.6933 27.9934 39.8667 27.4734 39.8667H24.5267L24.7867 38.8267C24.8734 38.48 25.2201 38.1333 25.6534 38.1333H26.8667C28.2534 38.1333 29.5534 37.44 30.4201 36.3133L33.1934 32.4133L34.7534 33.1067V35.2733H34.6667ZM23.1401 38.3933L22.5334 40.6467L21.9267 38.3933C21.6667 37.18 20.6267 36.4 19.4134 36.4H18.2001C17.3334 36.4 16.5534 35.9667 16.1201 35.2733L13.5201 31.6333L16.2067 30.42L18.7201 31.8067C21.0601 33.1067 23.8334 33.1067 26.1734 31.8067L28.6867 30.42L31.3734 31.6333L28.7734 35.2733C28.2534 35.9667 27.4734 36.4 26.6934 36.4H25.4801C24.4401 36.4 23.4001 37.18 23.1401 38.3933ZM20.5401 39.8667H17.5934C17.0734 39.8667 16.4667 39.6933 16.0334 39.3467L8.4934 33.8867L11.8734 32.4133L14.6467 36.3133C15.4267 37.44 16.8134 38.1333 18.2001 38.1333H19.4134C19.8467 38.1333 20.1934 38.3933 20.2801 38.8267L20.5401 39.8667ZM34.1467 20.02C34.4934 20.1067 34.6667 20.4533 34.6667 20.8V22.36C34.6667 22.7067 34.4934 22.9667 34.1467 23.14L32.9334 23.7467V23.66V21.2333L34.1467 20.02ZM12.3067 14.7333C12.6534 13.6933 13.6067 13 14.7334 13H30.3334C31.4601 13 32.4134 13.6933 32.7601 14.7333H12.3067ZM19.0667 4.07333V9.53333H20.8001V2.6C20.8001 2.08 21.1467 1.73333 21.6667 1.73333H23.4001C23.9201 1.73333 24.2667 2.08 24.2667 2.6V9.53333H26.0001V4.07333C29.5534 5.28667 32.1534 8.32 32.7601 12.0467C32.0667 11.5267 31.2001 11.2667 30.3334 11.2667H14.7334C13.8667 11.2667 13.0001 11.5267 12.3067 12.0467C12.9134 8.32 15.5134 5.28667 19.0667 4.07333ZM10.9201 23.14C10.6601 22.9667 10.4001 22.7067 10.4001 22.36V20.8C10.4001 20.4533 10.6601 20.1067 10.9201 20.02L12.1334 21.2333V23.66V23.7467L10.9201 23.14ZM13.8667 23.66V16.4667H31.2001V23.66C31.2001 25.9133 29.9867 27.9067 28.0801 28.9467L25.4801 30.3333C23.6601 31.2867 21.4934 31.2867 19.6734 30.3333L17.0734 28.9467C15.0801 27.9067 13.8667 25.8267 13.8667 23.66ZM3.46673 41.1667C3.46673 38.5667 4.76673 36.2267 6.84673 34.7533L15.0801 40.7333C15.8601 41.2533 16.7267 41.6 17.5934 41.6H21.6667V50.2667H19.0667V43.3333H12.8267L12.1334 40.56L10.4001 40.9067L11.0067 43.3333H9.5334V50.2667H3.46673V41.1667ZM17.3334 45.0667V46.8H11.2667V45.0667H17.3334ZM11.2667 48.5333H17.3334V50.2667H11.2667V48.5333ZM23.4001 50.2667V41.6H27.4734C28.4267 41.6 29.2934 41.34 29.9867 40.7333L34.6667 37.3533V41.1667L28.1667 50.2667H23.4001ZM43.3334 32.1533V50.2667H30.3334L41.6001 34.6667V34.58L43.3334 32.1533Z" fill="#2196F3"/>
<path d="M41.601 44.4875V33.9214L33.8877 44.4875H41.601ZM39.8677 42.8986H37.181L39.8677 39.1647V42.8986Z" fill="#2196F3"/>
</svg>
